<svg xmlns="http://www.w3.org/2000/svg" viewBox="0 0 242.667 242.667"><path d="M162.443 86.061l-54.044 50.235a11.199 11.199 0 00-3.473 6.704l-1.839 13.641c-.245 1.82-2.806 2.003-3.308.237l-7.08-24.875a6.593 6.593 0 012.883-7.418l65.484-40.334c1.175-.723 2.388.87 1.377 1.81zM242.667 0v242.667H0V0h242.667zm-54.002 58.301l-137.51 53.047c-3.39 1.308-3.364 6.114.04 7.385L84.7 131.24l12.97 41.708c.831 2.671 4.099 3.656 6.267 1.888l18.677-15.226a5.566 5.566 0 016.788-.19l33.689 24.459c2.319 1.684 5.604.414 6.187-2.392l24.675-118.699c.637-3.061-2.37-5.613-5.288-4.487z"/></svg>