<svg xmlns="http://www.w3.org/2000/svg" xmlns:xlink="http://www.w3.org/1999/xlink" x="0px" y="0px"
	 viewBox="0 0 242.667 242.667" style="enable-background:new 0 0 242.667 242.667;" xml:space="preserve">
	<path d="M162.443,86.061l-54.044,50.235c-1.899,1.765-3.126,4.135-3.473,6.704l-1.839,13.641c-0.245,1.82-2.806,2.003-3.308,0.237
		l-7.08-24.875c-0.808-2.839,0.37-5.87,2.883-7.418l65.484-40.334C162.241,83.528,163.454,85.121,162.443,86.061z M242.667,0v242.667
		H0V0H242.667z M188.665,58.301l-137.51,53.047c-3.39,1.308-3.364,6.114,0.04,7.385L84.7,131.24l12.97,41.708
		c0.831,2.671,4.099,3.656,6.267,1.888l18.677-15.226c1.958-1.596,4.744-1.674,6.788-0.19l33.689,24.459
		c2.319,1.684,5.604,0.414,6.187-2.392l24.675-118.699C194.59,59.727,191.583,57.175,188.665,58.301z"/>
</svg>
